<?xml version="1.0" encoding="utf-8"?>
<!-- Generator: Adobe Illustrator 15.0.0, SVG Export Plug-In . SVG Version: 6.00 Build 0)  -->
<!DOCTYPE svg PUBLIC "-//W3C//DTD SVG 1.1//EN" "http://www.w3.org/Graphics/SVG/1.1/DTD/svg11.dtd">
<svg version="1.1" id="Layer_1" xmlns="http://www.w3.org/2000/svg" xmlns:xlink="http://www.w3.org/1999/xlink" x="0px" y="0px"
	 width="27px" height="27px" viewBox="0 0 27 27" enable-background="new 0 0 27 27" xml:space="preserve">
<path fill="#2F2F2C" d="M0,0v27h27V0H0z M12.193,1.904c0-0.365,0.871,0,0.871,0v12.105c-0.509,0.18-0.871,0.664-0.871,1.233
	c0,0.722,0.585,1.305,1.307,1.305c0.722,0,1.307-0.583,1.307-1.305c0-0.569-0.362-1.054-0.871-1.233V1.904c0,0,0.871-0.365,0.871,0
	c0,6.811,5.226,11.677,5.226,11.677l-3.256,8.193h-6.552l-3.256-8.193C6.968,13.581,12.193,8.714,12.193,1.904z M7.839,25.258
	v-2.612h11.322v2.612H7.839z"/>
</svg>
