<svg xmlns="http://www.w3.org/2000/svg">
<!-- All images created with SVG-edit - http://svg-edit.googlecode.com/ -->























<g id="logo">

</g>


<g id="select">
</g>


<g id="select_node">
<svg viewBox="0 0 24 24" version="1.1">
	<g>
	<path fill="none" d="M6.67,5.202l8.314,7.482l-4.158,0.831L6.67,16.841V5.202z"/>
	<polygon fill="#302F2C" points="14.984,12.684 6.67,5.202 6.67,16.841 10.827,13.515 	"/>
	<path fill="#302F2C" d="M0,24h24V0H0V24z M5.008,0.213L20.14,13.515l-4.987,1.663l3.325,6.651l-3.325,1.663l-4.157-6.651
		l-5.988,3.325V0.213z"/>
	</g>
</svg>
</g>


<g id="rect">

</g>



<g id="circle">
<svg id="Untitled-Page%201" viewBox="0 0 27 27" style="background-color:#ffffff00" version="1.1"
	xmlns="http://www.w3.org/2000/svg" xmlns:xlink="http://www.w3.org/1999/xlink" xml:space="preserve"
	x="0px" y="0px" width="27px" height="27px"
>
	<path d="M 27 0 L 13.5 0 C 20.9559 0 27 6.0441 27 13.5 L 27 0 ZM 27 27 L 27 13.5 C 27 20.9559 20.9559 27 13.5 27 L 27 27 ZM 0 27 L 13.5 27 C 6.0441 27 0 20.9559 0 13.5 L 0 27 ZM 0 0 L 0 13.5 C 0 6.0441 6.0441 0 13.5 0 L 0 0 Z" fill="#2f2f2c"/>
</svg>
</g>

<g id="ellipse">
<svg id="eye-Page%201" viewBox="0 0 27 27" style="background-color:#ffffff00" version="1.1"
	xmlns="http://www.w3.org/2000/svg" xmlns:xlink="http://www.w3.org/1999/xlink" xml:space="preserve"
	x="0px" y="0px" width="27px" height="27px"
>
	<path fill="#2F2F2C" d="M27,0H0v27h27 M13.25,7.617c6.742,0,12.207,3.846,12.207,8.59c0,4.745-5.465,8.591-12.207,8.591
		S1.042,20.952,1.042,16.207C1.042,11.463,6.508,7.617,13.25,7.617z"/>
</svg>
</g>



<g id="pencil">

</g>

<g id="pen">

</g>

<g id="path">

</g>


<g id="text">
<svg id="eye-Page%201" viewBox="0 0 27 27" style="background-color:#ffffff00" version="1.1"
	xmlns="http://www.w3.org/2000/svg" xmlns:xlink="http://www.w3.org/1999/xlink" xml:space="preserve"
	x="0px" y="0px" width="27px" height="27px"
>
	<path fill="#2F2F2C" d="M0,0v27h27V0H0z M7.283,25.258v-1.741h0.539c1.133,0,1.879-0.204,2.224-0.64c0.345-0.422,0.525-1.157,0.525-2.191V4.355H8.733c-1.105,0-1.906,0.123-2.417,0.367C5.791,4.967,5.362,5.443,5.017,6.151C4.658,6.873,4.451,7.73,4.381,8.709H2.613V2.613h21.774v6.097H22.48c-0.359-1.701-0.87-2.858-1.52-3.457s-1.686-0.898-3.108-0.898h-1.976v16.331c0,1.062,0.165,1.81,0.525,2.218c0.358,0.409,1.104,0.613,2.236,0.613h0.595v1.741H7.283z"/>
</svg>
</g>



<g id="add_subpath">
<svg xmlns="http://www.w3.org/2000/svg" viewBox="0 0 124 124" xmlns:xlink="http://www.w3.org/1999/xlink">
 <defs>
  <linearGradient id="svg_4" x1="0.33594" y1="0.28125" x2="1" y2="1">
   <stop offset="0" stop-color="#ffffff" stop-opacity="1"/>
   <stop offset="1" stop-color="#33a533" stop-opacity="1"/>
  </linearGradient>
 </defs>
 <g>
  <path d="m6,103l55,-87c85,33.64 -26,37.12 55,87l-110,0z" id="svg_1" fill="url(#svg_4)" stroke="#2f2f2c" stroke-width="4" stroke-dasharray="null"/>
  <g id="svg_7">
   <circle stroke-dasharray="null" stroke-width="5" stroke="#2f2f2c" fill="#ffffff" id="svg_6" r="22.63281" cy="88.5" cx="45.5"/>
   <line stroke-dasharray="null" stroke-width="7" stroke="#2f2f2c" id="svg_2" y2="104.03768" x2="45.5" y1="72.96232" x1="45.5"/>
   <line stroke-dasharray="null" stroke-width="7" stroke="#2f2f2c" id="svg_3" y2="88.5" x2="61.03768" y1="88.5" x1="29.96232"/>
  </g>
 </g>
 </svg>
</g>

<g id="close_path">
<svg viewBox="0 0 300 300" xmlns="http://www.w3.org/2000/svg" xmlns:xlink="http://www.w3.org/1999/xlink">
 <g>
  <path stroke="#000" stroke-width="15" fill="#ffc8c8" d="m121.5,40l-84,106l27,115l166,2l29,-111"/>
  <line x1="240" y1="136" x2="169.5" y2="74" stroke="#A00" stroke-width="25" fill="none"/>
  <path stroke="none" fill ="#A00" d="m158,65l31,74l-3,-50l51,-3z"/>
  <g stroke-width="15" stroke="#00f" fill="#0ff">
  <circle r="30" cy="41" cx="123"/>
  <circle r="30" cy="146" cx="40"/>
  <circle r="30" cy="260" cx="69"/>
  <circle r="30" cy="260" cx="228"/>
  <circle r="30" cy="148" cx="260"/>
  </g>
 </g>
</svg>
</g>

<g id="open_path">
<svg viewBox="0 0 300 300" xmlns="http://www.w3.org/2000/svg" xmlns:xlink="http://www.w3.org/1999/xlink">
 <g>
  <path stroke="#000" stroke-width="15" fill="#ffc8c8" d="m123.5,38l-84,106l27,115l166,2l29,-111"/>
  <line x1="276.5" y1="153" x2="108.5" y2="24" stroke="#000" stroke-width="10" fill="none"/>
  <g stroke-width="15" stroke="#00f" fill="#0ff">
   <circle r="30" cy="41" cx="123"/>
   <circle r="30" cy="146" cx="40"/>
   <circle r="30" cy="260" cx="69"/>
   <circle r="30" cy="260" cx="228"/>
   <circle r="30" cy="148" cx="260"/>
  </g>
  <g  stroke="#A00" stroke-width="15" fill="none">
   <line x1="168" y1="24" x2="210" y2="150"/>
   <line x1="210" y1="24" x2="168" y2="150"/>
  </g>
 </g>
</svg>
</g>


<g id="image">
<svg id="eye-Page%201" viewBox="0 0 27 27" style="background-color:#ffffff00" version="1.1"
	xmlns="http://www.w3.org/2000/svg" xmlns:xlink="http://www.w3.org/1999/xlink" xml:space="preserve"
	x="0px" y="0px" width="27px" height="27px"
>
	<g id="Layer%201">
			<path fill="#2F2F2C" d="M23.377,8.006H3.624v13.602h19.753V8.006z M19.849,9.676c0.91,0,1.646,0.748,1.646,1.67s-0.736,1.671-1.646,1.671c-0.908,0-1.646-0.749-1.646-1.671S18.94,9.676,19.849,9.676z M5.034,20.175L9.972,9.438l5.173,7.158l2.587-2.147l4.233,5.727H5.034z"/>
			<path fill="#2F2F2C" d="M0,0v27h27V0H0z M25.258,23.517H1.742V6.097h23.516V23.517z"/>
	</g>
</svg>
</g>

<g id="zoom">
<svg id="eye-Page%201" viewBox="0 0 27 27" style="background-color:#ffffff00" version="1.1"
	xmlns="http://www.w3.org/2000/svg" xmlns:xlink="http://www.w3.org/1999/xlink" xml:space="preserve"
	x="0px" y="0px" width="27px" height="27px"
>
	<circle fill="#2F2F2C" cx="10.887" cy="10.887" r="6.532"/>
	<path fill="#2F2F2C" d="M0,0v27h27V0H0z M15.373,18.856c-1.326,0.747-2.855,1.176-4.486,1.176c-5.051,0-9.145-4.095-9.145-9.145
		c0-5.051,4.094-9.145,9.145-9.145c5.05,0,9.145,4.094,9.145,9.145c0,2.081-0.697,3.999-1.868,5.536l6.223,6.223l-2.612,2.612
		L15.373,18.856z"/>
</svg>
</g>

<g id="arrow_right">
	<svg xmlns:xlink="http://www.w3.org/1999/xlink" xmlns="http://www.w3.org/2000/svg" viewBox="0 0 25 50">
	  <path stroke="none" fill="#ccc" d="m0,0l0,50l25,-25l-25,-25z"/>
	</svg>
</g>

<g id="arrow_right_big">
	<svg xmlns:xlink="http://www.w3.org/1999/xlink" xmlns="http://www.w3.org/2000/svg" viewBox="0 0 40 50">
	  <path stroke="none" fill="#ccc" d="m0,0l0,50l25,-25l-25,-25z"/>
	</svg>
</g>

<g id="arrow_down">
	<svg viewBox="0 0 50 40" xmlns="http://www.w3.org/2000/svg" xmlns:xlink="http://www.w3.org/1999/xlink">
	  <path transform="rotate(90, 26, 13)" d="m14,-12l0,50l25,-25l-25,-25z" fill="#ccc" stroke="none"/>
	</svg>
</g>

<g id="align_left">
	<svg viewBox="0 0 27 27"  version="1.1"
		xmlns="http://www.w3.org/2000/svg" xmlns:xlink="http://www.w3.org/1999/xlink" xml:space="preserve"
		x="0px" y="0px" width="27px" height="27px"
	>
		<path d="M 2 1 L 2 5 L 14 5 L 14 11 L 2 11 L 2 16 L 20 16 L 20 22 L 2 22 L 2 26 L 1 26 L 1 1 L 2 1 ZM 27 0 L 0 0 L 0 27 L 27 27 L 27 0 Z" fill="#3f3f3c"/>
	</svg>
</g>

<g id="align_center">
	<svg viewBox="0 0 27 27" style="background-color:#ffffff00" version="1.1"
		xmlns="http://www.w3.org/2000/svg" xmlns:xlink="http://www.w3.org/1999/xlink" xml:space="preserve"
		x="0px" y="0px" width="27px" height="27px">
			<path d="M 13 1 L 14 1 L 14 6 L 22 6 L 22 12 L 14 12 L 14 15 L 19 15 L 19 21 L 14 21 L 14 26 L 13 26 L 13 21 L 8 21 L 8 15 L 13 15 L 13 12 L 5 12 L 5 6 L 13 6 L 13 1 ZM 0 0 L 0 27 L 27 27 L 27 0 L 0 0 Z" fill="#3f3f3c"/>

	</svg>
</g>

<g id="align_right">
	<svg viewBox="0 0 27 27" style="background-color:#ffffff00" version="1.1"
		xmlns="http://www.w3.org/2000/svg" xmlns:xlink="http://www.w3.org/1999/xlink" xml:space="preserve"
		x="0px" y="0px" width="27px" height="27px"
	>
		<path d="M 25 1 L 25 5 L 13 5 L 13 11 L 25 11 L 25 16 L 7 16 L 7 22 L 25 22 L 25 26 L 26 26 L 26 1 L 25 1 ZM 0 0 L 27 0 L 27 27 L 0 27 L 0 0 Z" fill="#3f3f3c"/>
	</svg>
</g>

<g id="align_top">
	<svg id="Untitled-Page%201" viewBox="0 0 27 27" style="background-color:#ffffff00" version="1.1"
		xmlns="http://www.w3.org/2000/svg" xmlns:xlink="http://www.w3.org/1999/xlink" xml:space="preserve"
		x="0px" y="0px" width="27px" height="27px"
	>
		<path d="M 1 2 L 5 2 L 5 14 L 11 14 L 11 2 L 16 2 L 16 20 L 22 20 L 22 2 L 26 2 L 26 1 L 1 1 L 1 2 ZM 0 27 L 0 0 L 27 0 L 27 27 L 0 27 Z" fill="#3f3f3c"/>
	</svg>
</g>

<g id="align_middle">
<svg id="Untitled-Page%201" viewBox="0 0 27 27" style="background-color:#ffffff00" version="1.1"
	xmlns="http://www.w3.org/2000/svg" xmlns:xlink="http://www.w3.org/1999/xlink" xml:space="preserve"
	x="0px" y="0px" width="27px" height="27px"
>
	<path d="M 26 13 L 26 14 L 21 14 L 21 22 L 15 22 L 15 14 L 12 14 L 12 19 L 6 19 L 6 14 L 1 14 L 1 13 L 6 13 L 6 8 L 12 8 L 12 13 L 15 13 L 15 5 L 21 5 L 21 13 L 26 13 ZM 27 0 L 0 0 L 0 27 L 27 27 L 27 0 Z" fill="#3f3f3c"/>
</svg>
</g>

<g id="align_bottom">
<svg id="Untitled-Page%201" viewBox="0 0 27 27" style="background-color:#ffffff00" version="1.1"
	xmlns="http://www.w3.org/2000/svg" xmlns:xlink="http://www.w3.org/1999/xlink" xml:space="preserve"
	x="0px" y="0px" width="27px" height="27px"
>
	<path d="M 1 25 L 5 25 L 5 13 L 11 13 L 11 25 L 16 25 L 16 7 L 22 7 L 22 25 L 26 25 L 26 26 L 1 26 L 1 25 ZM 0 0 L 0 27 L 27 27 L 27 0 L 0 0 Z" fill="#3f3f3c"/>
</svg>
</g>

<g id="linecap_butt">
<svg width="100" height="100" xmlns="http://www.w3.org/2000/svg" xmlns:se="http://svg-edit.googlecode.com" xmlns:xlink="http://www.w3.org/1999/xlink">
 <!-- Created with SVG-edit - http://svg-edit.googlecode.com/ -->
 <defs>
  <linearGradient id="svg_8" x1="0.8" y1="1" x2="0.2" y2="1">
   <stop offset="0" stop-color="#2f2f2c" stop-opacity="1"/>
   <stop offset="1" stop-color="#2f2f2c" stop-opacity="0"/>
  </linearGradient>
 </defs>
 <g>
  <rect fill="url(#svg_8)" stroke="#a0a0a0" stroke-width="2" x="-15.20196" y="43.5974" width="94.8373" height="50.3728" id="svg_3" transform="rotate(-45, 32.2148, 68.7832)"/>
  <path id="svg_1" d="m6.63133,95.07755l59.17514,-59.17514" stroke-width="3" stroke="#00ffff" fill="none"/>
  <path id="svg_2" d="m51.62893,36.10742l13.05662,-13.05662l13.05661,13.05662l-13.05661,13.05662l-13.05662,-13.05662z" stroke="none" fill="#00ffff"/>
 </g>
</svg>
</g>

<g id="linecap_square">
<svg width="100" height="100" xmlns="http://www.w3.org/2000/svg" xmlns:se="http://svg-edit.googlecode.com" xmlns:xlink="http://www.w3.org/1999/xlink">
 <!-- Created with SVG-edit - http://svg-edit.googlecode.com/ -->
 <defs>
  <linearGradient id="svg_8" x1="0.8" y1="1" x2="0.2" y2="1">
   <stop offset="0" stop-color="#2f2f2c" stop-opacity="1"/>
   <stop offset="1" stop-color="#2f2f2c" stop-opacity="0"/>
  </linearGradient>
 </defs>
 <g>
  <rect fill="url(#svg_8)" stroke="none" x="-18.51568" y="35.5974" width="117.46469" height="50.3728" id="svg_3" transform="rotate(-45, 40.2168, 60.7832)"/>
  <path id="svg_1" d="m6.63133,95.07755l59.17514,-59.17514" stroke-width="3" stroke="#00ffff" fill="none"/>
  <path id="svg_2" d="m51.62893,36.10742l13.05662,-13.05662l13.05661,13.05662l-13.05661,13.05662l-13.05662,-13.05662z" stroke="none" fill="#00ffff"/>
 </g>
</svg>
</g>

<g id="linecap_round">
<svg width="100" height="100" xmlns="http://www.w3.org/2000/svg" xmlns:xlink="http://www.w3.org/1999/xlink" xmlns:se="http://svg-edit.googlecode.com">
 <!-- Created with SVG-edit - http://svg-edit.googlecode.com/ -->
 <defs>
  <linearGradient y2="1" x2="0.2" y1="1" x1="0.8" id="svg_8">
   <stop stop-opacity="1" stop-color="#2f2f2c" offset="0"/>
   <stop stop-opacity="0" stop-color="#2f2f2c" offset="1"/>
  </linearGradient>
 </defs>
 <g>
  <path transform="rotate(-45, 41.5117, 59.4648)" id="svg_3" d="m-19.0679,34.2946l94.8359,0c36.499,-1.4142 33.67101,48.9569 0,50.3711l-94.8359,0l0,-50.3711z" stroke-width="2" stroke="#a0a0a0" fill="url(#svg_8)"/>
  <path id="svg_1" d="m6.63133,95.07755l59.17515,-59.17515" stroke-width="3" stroke="#00ffff" fill="none"/>
  <path id="svg_2" d="m51.62893,36.10742l13.05662,-13.05662l13.05661,13.05662l-13.05661,13.05662l-13.05662,-13.05662z" stroke="none" fill="#00ffff"/>
 </g>
</svg>
</g>

<g id="linejoin_miter">
<svg width="100" height="100" xmlns="http://www.w3.org/2000/svg" xmlns:xlink="http://www.w3.org/1999/xlink" xmlns:se="http://svg-edit.googlecode.com">
 <!-- Created with SVG-edit - http://svg-edit.googlecode.com/ -->
 <defs>
  <linearGradient y2="1" x2="0.2" y1="1" x1="0.8" id="svg_8">
   <stop stop-opacity="1" stop-color="#2f2f2c" offset="0"/>
   <stop stop-opacity="0" stop-color="#2f2f2c" offset="1"/>
  </linearGradient>
 </defs>
 <g>
  <path fill="none" stroke="url(#svg_8)" stroke-width="49" d="m-15,-35l75,85l-75,75" id="svg_6"/>
  <path transform="rotate(90, 57.8925, 50.2519)" fill="#00ffff" stroke="none" d="m44.83592,50.25187l13.05661,-13.05663l13.05661,13.05663l-13.05661,13.05662l-13.05661,-13.05662z" id="svg_2"/>
  <path id="svg_4" d="m-15,-35l75,85l-75,75" stroke-width="3" stroke="#00ffff" fill="none"/>
 </g>
</svg>
</g>

<g id="linejoin_bevel">
<svg width="100" height="100" xmlns="http://www.w3.org/2000/svg" xmlns:xlink="http://www.w3.org/1999/xlink" xmlns:se="http://svg-edit.googlecode.com">
 <!-- Created with SVG-edit - http://svg-edit.googlecode.com/ -->
 <defs>
  <linearGradient y2="1" x2="0.2" y1="1" x1="0.8" id="svg_8">
   <stop stop-opacity="1" stop-color="#2f2f2c" offset="0"/>
   <stop stop-opacity="0" stop-color="#2f2f2c" offset="1"/>
  </linearGradient>
 </defs>
 <g>
  <path stroke-linejoin="bevel" fill="none" stroke="url(#svg_8)" stroke-width="49" d="m-15,-35l75,85l-75,75" id="svg_6"/>
  <path transform="rotate(90, 57.8925, 50.2519)" fill="#00ffff" stroke="none" d="m44.83592,50.25187l13.05661,-13.05663l13.05661,13.05663l-13.05661,13.05662l-13.05661,-13.05662z" id="svg_2"/>
  <path id="svg_4" d="m-15,-35l75,85l-75,75" stroke-width="3" stroke="#00ffff" fill="none"/>
 </g>
</svg>
</g>

<g id="linejoin_round">
<svg width="100" height="100" xmlns="http://www.w3.org/2000/svg" xmlns:xlink="http://www.w3.org/1999/xlink" xmlns:se="http://svg-edit.googlecode.com">
 <!-- Created with SVG-edit - http://svg-edit.googlecode.com/ -->
 <defs>
  <linearGradient y2="1" x2="0.2" y1="1" x1="0.8" id="svg_8">
   <stop stop-opacity="1" stop-color="#2f2f2c" offset="0"/>
   <stop stop-opacity="0" stop-color="#2f2f2c" offset="1"/>
  </linearGradient>
 </defs>
 <g>
  <path stroke-linejoin="round" fill="none" stroke="url(#svg_8)" stroke-width="49" d="m-15,-35l75,85l-75,75" id="svg_6"/>
  <path transform="rotate(90, 57.8925, 50.2519)" fill="#00ffff" stroke="none" d="m44.83592,50.25187l13.05661,-13.05663l13.05661,13.05663l-13.05661,13.05662l-13.05661,-13.05662z" id="svg_2"/>
  <path id="svg_4" d="m-15,-35l75,85l-75,75" stroke-width="3" stroke="#00ffff" fill="none"/>
 </g>
</svg>
</g>


<g id="no_color">
	<svg xmlns:xlink="http://www.w3.org/1999/xlink" xmlns="http://www.w3.org/2000/svg" viewBox="0 0 24 24">
	  <line fill="none" stroke="#d40000" id="svg_90" y2="24" x2="24" y1="0" x1="0"/>
	  <line id="svg_92" fill="none" stroke="#d40000" y2="24" x2="0" y1="0" x1="24"/>
	</svg>
</g>


<g id="node_delete">
<svg width="24" height="24" xmlns="http://www.w3.org/2000/svg">
  <path stroke-width="2" id="svg_102" d="m4.1953,19.42128c15.49391,-15.53349 -0.21065,0.1581 15.61084,-15.57944" stroke="#8dd35f" fill="none"/>
  <circle stroke-width="0.5" id="svg_121" stroke="#0000ff" fill="#00ffff" r="2.26172" cy="4" cx="19.75"/>
  <circle id="svg_123" stroke-width="0.5" stroke="#0000ff" fill="#00ffff" r="2.26172" cy="19.40299" cx="4.0653"/>
  <circle id="svg_7" stroke-width="0.5" stroke="#0000ff" fill="#00ffff" r="2.26172" cy="11.625" cx="11.9375"/>
  <g transform="rotate(-45.291072845458984 9.81157112121582,9.244086265563965) " id="svg_6">
   <line stroke-linecap="round" id="svg_4" y2="9.45264" x2="15.14996" y1="9.3943" x1="4.47318" stroke-dasharray="null" stroke-width="2" stroke="#ff0000" fill="none"/>
   <line stroke-linecap="round" id="svg_5" y2="14.46579" x2="9.66571" y1="4.02238" x1="9.7824" stroke-dasharray="null" stroke-width="2" stroke="#ff0000" fill="none"/>
  </g>
</svg>
</g>

<g id="node_clone">
<svg width="24" height="24" xmlns="http://www.w3.org/2000/svg">
  <path stroke-width="2" id="svg_102" d="m4.1953,19.42128c15.49391,-15.53349 -0.21065,0.1581 15.61084,-15.57944" stroke="#8dd35f" fill="none"/>
  <circle stroke-width="0.5" id="svg_121" stroke="#0000ff" fill="#00ffff" r="2.26172" cy="4" cx="19.75"/>
  <circle id="svg_123" stroke-width="0.5" stroke="#0000ff" fill="#00ffff" r="2.26172" cy="19.40299" cx="4.0653"/>
  <circle id="svg_7" stroke-width="0.5" stroke="#0000ff" fill="#00ffff" r="2.26172" cy="11.625" cx="11.9375"/>
  <line stroke-linecap="round" id="svg_5" y2="14.46579" x2="9.66571" y1="4.02238" x1="9.7824" stroke-dasharray="null" stroke-width="2" stroke="#0000ff" fill="#0000ff"/>
  <line stroke-linecap="round" id="svg_4" y2="9.45264" x2="15.14996" y1="9.3943" x1="4.47318" stroke-dasharray="null" stroke-width="2" stroke="#0000ff" fill="#0000ff"/>
</svg>
</g>



<g id="svg_eof"/>

</svg>
