<?xml version="1.0" encoding="utf-8"?>
<!-- Generator: Adobe Illustrator 15.0.0, SVG Export Plug-In . SVG Version: 6.00 Build 0)  -->
<!DOCTYPE svg PUBLIC "-//W3C//DTD SVG 1.1//EN" "http://www.w3.org/Graphics/SVG/1.1/DTD/svg11.dtd">
<svg version="1.1" id="Layer_1" xmlns="http://www.w3.org/2000/svg" xmlns:xlink="http://www.w3.org/1999/xlink" x="0px" y="0px"
	 width="27px" height="27px" viewBox="0 0 27 27" enable-background="new 0 0 27 27" xml:space="preserve">
<path fill="#2F2F2C" d="M0,0v27h27V0H0z M7.283,25.258v-1.741h0.539c1.133,0,1.879-0.204,2.224-0.64
	c0.345-0.422,0.525-1.157,0.525-2.191V4.355H8.733c-1.105,0-1.906,0.123-2.417,0.367C5.791,4.967,5.362,5.443,5.017,6.151
	C4.658,6.873,4.451,7.73,4.381,8.709H2.613V2.613h21.774v6.097H22.48c-0.359-1.701-0.87-2.858-1.52-3.457s-1.686-0.898-3.108-0.898
	h-1.976v16.331c0,1.062,0.165,1.81,0.525,2.218c0.358,0.409,1.104,0.613,2.236,0.613h0.595v1.741H7.283z"/>
</svg>
