<?xml version="1.0" standalone="no"?><!-- Generator: Adobe Fireworks CS5, Export SVG Extension by Aaron Beall (http://fireworks.abeall.com) . Version: 0.6.1  --><!DOCTYPE svg PUBLIC "-//W3C//DTD SVG 1.1//EN" "http://www.w3.org/Graphics/SVG/1.1/DTD/svg11.dtd"><svg id="eye-Page%201" viewBox="0 0 27 27" style="background-color:#ffffff00" version="1.1"	xmlns="http://www.w3.org/2000/svg" xmlns:xlink="http://www.w3.org/1999/xlink" xml:space="preserve"	x="0px" y="0px" width="27px" height="27px">	<path d="M 26.575 14.5 C 25.0764 18.8131 19.7906 22 13.5 22 C 7.2094 22 1.9236 18.8131 0.425 14.5 C 1.9236 10.1869 7.2094 7 13.5 7 C 19.7906 7 25.0764 10.1869 26.575 14.5 ZM 0 0 L 0 27 L 27 27 L 27 0 L 0 0 ZM 20.5226 14.5 C 20.5226 10.9101 16.5538 8.0625 14.0226 8 C 13.8544 7.9958 14.6876 9.0074 14.5226 9.02 C 16.6163 9 18.5226 11.0783 18.5226 14.5 C 18.5226 17.9217 16.7413 19.625 14.5226 19.98 C 14.6876 19.9926 13.8543 21 14.0226 21 C 16.5851 21 20.5226 18.0899 20.5226 14.5 ZM 6 14.5 C 6 18.0899 9.9375 21 12.5 21 C 12.6682 21 11.835 19.9926 12 19.98 C 9.7813 19.625 8 17.9217 8 14.5 C 8 11.0783 9.9063 9 12 9.02 C 11.835 9.0074 12.6682 7.9958 12.5 8 C 9.9688 8.0625 6 10.9101 6 14.5 Z" fill="#000000"/></svg>