<?xml version="1.0" encoding="utf-8"?>
<!-- Generator: Adobe Illustrator 15.0.0, SVG Export Plug-In . SVG Version: 6.00 Build 0)  -->
<!DOCTYPE svg PUBLIC "-//W3C//DTD SVG 1.1//EN" "http://www.w3.org/Graphics/SVG/1.1/DTD/svg11.dtd">
<svg version="1.1" id="Layer_1" xmlns="http://www.w3.org/2000/svg" xmlns:xlink="http://www.w3.org/1999/xlink" x="0px" y="0px"
	 width="27px" height="27px" viewBox="-1.5 -1.5 27 27" enable-background="new -1.5 -1.5 27 27" xml:space="preserve">
<path fill="#2F2F2C" d="M-1.5-1.5v27h27v-27 M19.616,9.216L6.647,21.567l-5.531,1.285l-0.1-0.094l1.449-5.269L15.438,5.204
	c0.231-0.062,0.788-0.219,1.579-0.062L3.255,18.243l-0.394,1.381l1.58,1.504l1.481-0.375l0.66-0.598l0.065-1.408l-1.053-1.004
	L18.203,5.736c0.196,0.157,0.196,0.157,0.396,0.376C20.476,7.869,19.616,9.216,19.616,9.216z M22.87,4.9
	c-0.002,0.774-0.358,1.561-1.013,2.185l-1.217,1.16c0,0,0.921-1.348-0.989-3.103c-1.679-1.599-3.259-0.91-3.259-0.91l1.284-1.223
	c1.154-1.126,3.161-1.126,4.278-0.062c0.622,0.549,0.913,1.239,0.915,1.938V4.9z"/>
</svg>
