<?xml version="1.0" standalone="no"?><!-- Generator: Adobe Fireworks CS5, Export SVG Extension by Aaron Beall (http://fireworks.abeall.com) . Version: 0.6.1  --><!DOCTYPE svg PUBLIC "-//W3C//DTD SVG 1.1//EN" "http://www.w3.org/Graphics/SVG/1.1/DTD/svg11.dtd"><svg id="eye-Page%201" viewBox="0 0 27 27" style="background-color:#ffffff00" version="1.1"	xmlns="http://www.w3.org/2000/svg" xmlns:xlink="http://www.w3.org/1999/xlink" xml:space="preserve"	x="0px" y="0px" width="27px" height="27px">	<g id="Layer%201">		<path d="M 16.6855 8.9536 L 12.8818 22.146 C 12.6714 22.9009 12.5664 23.396 12.5664 23.6304 C 12.5664 23.7671 12.6221 23.8931 12.7334 24.0112 C 12.8447 24.1284 12.9619 24.187 13.0859 24.187 C 13.2959 24.187 13.5063 24.0942 13.7168 23.9087 C 14.2734 23.4517 14.9414 22.6226 15.7207 21.4224 L 16.3516 21.7935 C 14.4834 25.0474 12.498 26.6733 10.3955 26.6733 C 9.5913 26.6733 8.9512 26.4478 8.4751 25.9956 C 7.9985 25.5444 7.7607 24.9731 7.7607 24.2798 C 7.7607 23.8228 7.8657 23.2407 8.0762 22.5356 L 10.6553 13.6665 C 10.9023 12.813 11.0264 12.1704 11.0264 11.7368 C 11.0264 11.4653 10.9087 11.2241 10.6738 11.0132 C 10.4385 10.8032 10.1172 10.6978 9.709 10.6978 C 9.5234 10.6978 9.3008 10.7046 9.041 10.7163 L 9.2822 9.9741 L 15.5723 8.9536 L 16.6855 8.9536 ZM 15.5352 0.4185 C 16.3018 0.4185 16.9482 0.6851 17.4741 1.2163 C 17.9995 1.7485 18.2627 2.3921 18.2627 3.146 C 18.2627 3.9009 17.9966 4.5444 17.4648 5.0757 C 16.9326 5.6079 16.2896 5.8735 15.5352 5.8735 C 14.793 5.8735 14.1558 5.6079 13.624 5.0757 C 13.0918 4.5444 12.8262 3.9009 12.8262 3.146 C 12.8262 2.3921 13.0889 1.7485 13.6147 1.2163 C 14.1401 0.6851 14.7803 0.4185 15.5352 0.4185 ZM 0 0 L 0 27 L 27 27 L 27 0 L 0 0 Z" fill="#000000"/>	</g></svg>