<svg viewBox="0 0 17 54" version="1.1" xmlns="http://www.w3.org/2000/svg"><path d="M 3 8 L 4 9 L 8 6 L 12 9 L 13 8 L 8 3 L 3 8 Z" fill="#ffffff" opacity="0.30196078431372547"/><path d="M 13 12 L 12 11 L 8 14 L 4 11 L 3 12 L 8 17 L 13 12 Z" fill="#ffffff" opacity="0.30196078431372547"/><path d="M 3 28 L 4 29 L 8 26 L 12 29 L 13 28 L 8 23 L 3 28 Z" fill="#33ccff"/><path d="M 13 32 L 12 31 L 8 34 L 4 31 L 3 32 L 8 37 L 13 32 Z" fill="#ffffff"/><path d="M 13 52 L 12 51 L 8 54 L 4 51 L 3 52 L 8 57 L 13 52 Z" fill="#33ccff"/><path d="M 3 48 L 4 49 L 8 46 L 12 49 L 13 48 L 8 43 L 3 48 Z" fill="#ffffff"/></svg>